<svg xmlns="http://www.w3.org/2000/svg" width="35" height="35" viewBox="0 0 35 35"><path d="M23.079 88.136S88.52 61.35 111.236 51.92c8.7-3.771 38.207-15.835 38.207-15.835s13.628-5.293 12.493 7.543c-.386 5.271-3.407 23.764-6.429 43.757-4.543 28.285-9.471 59.207-9.471 59.207s-.75 8.678-7.179 10.2c-6.428 1.5-17.036-5.293-18.921-6.793-1.522-1.136-28.372-18.107-38.207-26.421-2.658-2.25-5.679-6.772.364-12.065 13.628-12.45 29.893-27.9 39.728-37.714 4.543-4.521 9.086-15.086-9.835-2.271-26.85 18.492-53.336 35.85-53.336 35.85s-6.064 3.771-17.421.364c-11.336-3.386-24.579-7.929-24.579-7.929s-9.086-5.657 6.429-11.678Zm0 0" style="fill:none;stroke-width:12;stroke-linecap:butt;stroke-linejoin:miter;stroke:#000;stroke-opacity:1;stroke-miterlimit:4" transform="scale(.1823)"/></svg>