<svg xmlns="http://www.w3.org/2000/svg" width="35" height="35"><path d="M17.035.465C6.895.996.2 8.949.621 18.977c.188 4.39 1.95 8.168 2.367 12.332.11 1.082-.203 2.414 1.043 2.882 1.532.582 3.88-.39 5.16-1.28.438-.298.856-.641 1.176-1.071 1.328.879 2.586 1.73 4.168 2.11 6.957 1.667 14.578-2.15 17.965-8.278C38.871 14.156 30.262-.223 17.035.465M13.098 24.5c-.551.43-1.082 1.012-1.688 1.348-.883.468-1.152-.02-1.484-.797-1.04-2.477-1.168-6.692-.559-9.281.817-3.524 3.543-6.625 7.293-6.957 3.79-.336 7.309 1.59 8.899 5.066 3.52 7.734-5.489 15.371-12.461 10.625zm0 0" fill="#fff"/></svg>