<?xml version="1.0" encoding="utf-8"?><svg viewBox="0 0 35 35" xmlns="http://www.w3.org/2000/svg" xmlns:xlink="http://www.w3.org/1999/xlink"><style>:root>svg{display:none}:root>svg:target{display:block}</style><svg viewBox="0 0 35 35" id="" xmlns="http://www.w3.org/2000/svg"><path d="M23.079 88.136S88.52 61.35 111.236 51.92c8.7-3.771 38.207-15.835 38.207-15.835s13.628-5.293 12.493 7.543c-.386 5.271-3.407 23.764-6.429 43.757-4.543 28.285-9.471 59.207-9.471 59.207s-.75 8.678-7.179 10.2c-6.428 1.5-17.036-5.293-18.921-6.793-1.522-1.136-28.372-18.107-38.207-26.421-2.658-2.25-5.679-6.772.364-12.065 13.628-12.45 29.893-27.9 39.728-37.714 4.543-4.521 9.086-15.086-9.835-2.271-26.85 18.492-53.336 35.85-53.336 35.85s-6.064 3.771-17.421.364c-11.336-3.386-24.579-7.929-24.579-7.929s-9.086-5.657 6.429-11.678Zm0 0" style="fill:none;stroke-width:12;stroke-linecap:butt;stroke-linejoin:miter;stroke:#000;stroke-opacity:1;stroke-miterlimit:4" transform="scale(.1823)"/></svg><svg viewBox="0 0 35 35" id="g" xmlns="http://www.w3.org/2000/svg"><path d="M17.035.465C6.895.996.2 8.949.621 18.977c.188 4.39 1.95 8.168 2.367 12.332.11 1.082-.203 2.414 1.043 2.882 1.532.582 3.88-.39 5.16-1.28.438-.298.856-.641 1.176-1.071 1.328.879 2.586 1.73 4.168 2.11 6.957 1.667 14.578-2.15 17.965-8.278C38.871 14.156 30.262-.223 17.035.465M13.098 24.5c-.551.43-1.082 1.012-1.688 1.348-.883.468-1.152-.02-1.484-.797-1.04-2.477-1.168-6.692-.559-9.281.817-3.524 3.543-6.625 7.293-6.957 3.79-.336 7.309 1.59 8.899 5.066 3.52 7.734-5.489 15.371-12.461 10.625Zm0 0" style="stroke:none;fill-rule:nonzero;fill:#fff;fill-opacity:1"/></svg><svg fill="none" viewBox="0 0 35 35" id="left" xmlns="http://www.w3.org/2000/svg"><path fill-rule="evenodd" clip-rule="evenodd" d="M34.83 18.601H5.125l14.27 14.341-1.641 1.65L.68 17.435 17.756.275l1.642 1.65L5.125 16.268H34.83v2.333Z" fill="#333"/></svg><svg fill="none" viewBox="0 0 35 35" id="right" xmlns="http://www.w3.org/2000/svg"><g clip-path="url(#ba)"><path fill-rule="evenodd" clip-rule="evenodd" d="M34.15 17.435 17.073 34.594l-1.642-1.65 14.27-14.34H0V16.27h29.705L15.432 1.925l1.641-1.65 17.076 17.16Z" fill="#333"/></g><defs><clipPath id="ba"><path fill="#fff" d="M0 0h35v35H0z"/></clipPath></defs></svg><svg viewBox="0 0 35 35" id="svg" xmlns="http://www.w3.org/2000/svg"><path d="M18.957 5.832c-.805 0-1.457.652-1.457 1.461 0 .805.652 1.457 1.457 1.457 1.86 0 3.29.613 4.258 1.578.965.965 1.578 2.399 1.578 4.254a1.458 1.458 0 1 0 2.914 0c0-2.52-.844-4.73-2.43-6.316s-3.8-2.434-6.32-2.434M7.313 11.676c.167-1.317 1.878-3.11 3.238-2.91l-.004-.004c1.137.218 2.07 1.925 2.687 3.054.098.184.192.356.274.5.418.743.148 1.496-.242 1.813q-.07.054-.141.113c-.52.41-1.195.945-1.035 1.485.305 1.043 3.953 4.691 5.746 5.726.547.317.977-.3 1.34-.828q.128-.19.25-.344c.304-.41 1.058-.652 1.8-.25a20 20 0 0 1 3.114 2.239c.48.402.594.996.262 1.625-.59 1.109-2.29 2.566-3.524 2.27-2.152-.517-10.871-3.895-13.668-13.685-.148-.43-.125-.613-.101-.77Zm0 0" style="stroke:none;fill-rule:nonzero;fill:#0f0f0f;fill-opacity:1"/><path d="M18.957 10.207c-.805 0-1.457.652-1.457 1.461 0 .805.652 1.457 1.457 1.457.258 0 .633.14.977.484.34.344.484.72.484.973a1.458 1.458 0 1 0 2.914 0c0-1.203-.586-2.285-1.336-3.035-.754-.75-1.836-1.34-3.039-1.34m0 0" style="stroke:none;fill-rule:nonzero;fill:#0f0f0f;fill-opacity:1"/><path d="M10.965 34.754q.06.034.125.062c.793.34 1.77-.418 3.723-1.937l1.957-1.524c3.921.13 7.312-.386 9.933-1.304a10.2 10.2 0 0 0 6.266-6.262c1.414-4.043 1.414-11.453 0-15.496a10.22 10.22 0 0 0-6.266-6.262C22.035.398 12.88.43 8.297 2.031A10.22 10.22 0 0 0 2.03 8.293c-1.414 4.043-1.414 11.453 0 15.496a10.2 10.2 0 0 0 6.266 6.262c.574.203 1.219.422 1.91.574 0 2.477 0 3.715.758 4.129m2.16-4.258v-1.633a.724.724 0 0 0-.574-.71c-1.114-.239-2.215-.477-3.293-.852a7.3 7.3 0 0 1-4.473-4.477c-.558-1.59-.898-4.09-.898-6.781s.34-5.191.898-6.785a7.28 7.28 0 0 1 4.473-4.473c1.847-.648 4.914-1.047 8.21-1.05 3.302-.005 6.384.386 8.274 1.05a7.28 7.28 0 0 1 4.473 4.473c.558 1.594.898 4.094.898 6.785s-.34 5.191-.898 6.781a7.3 7.3 0 0 1-4.473 4.477c-3.11 1.086-6.406 1.207-9.664 1.113a.7.7 0 0 0-.473.152Zm0 0" style="stroke:none;fill-rule:evenodd;fill:#0f0f0f;fill-opacity:1"/></svg></svg>