<svg xmlns="http://www.w3.org/2000/svg" width="35" height="35"><path d="M4.207 16.067s11.93-4.883 16.071-6.602c1.586-.687 6.965-2.887 6.965-2.887s2.485-.965 2.278 1.375c-.07.961-.621 4.333-1.172 7.977-.828 5.157-1.727 10.794-1.727 10.794s-.136 1.582-1.308 1.86c-1.172.273-3.106-.966-3.45-1.24-.277-.206-5.172-3.3-6.965-4.816-.484-.41-1.035-1.234.067-2.2 2.484-2.269 5.449-5.085 7.242-6.874.828-.825 1.656-2.75-1.793-.414-4.895 3.37-9.723 6.535-9.723 6.535s-1.106.687-3.176.066c-2.067-.617-4.48-1.445-4.48-1.445s-1.657-1.031 1.171-2.129zm0 0" fill="none" stroke-width="2.188" stroke="#000"/></svg>