<svg xmlns="http://www.w3.org/2000/svg" width="35" height="35"><path d="M18.957 5.832c-.805 0-1.457.652-1.457 1.461 0 .805.652 1.457 1.457 1.457 1.86 0 3.29.613 4.258 1.578.965.965 1.578 2.399 1.578 4.254a1.458 1.458 0 102.914 0c0-2.52-.844-4.73-2.43-6.316s-3.8-2.434-6.32-2.434M7.313 11.676c.167-1.317 1.878-3.11 3.238-2.91l-.004-.004c1.137.218 2.07 1.925 2.687 3.054.098.184.192.356.274.5.418.743.148 1.496-.242 1.813q-.07.054-.141.113c-.52.41-1.195.945-1.035 1.485.305 1.043 3.953 4.691 5.746 5.726.547.317.977-.3 1.34-.828q.128-.19.25-.344c.304-.41 1.058-.652 1.8-.25a20 20 0 013.114 2.239c.48.402.594.996.262 1.625-.59 1.109-2.29 2.566-3.524 2.27-2.152-.517-10.871-3.895-13.668-13.685-.148-.43-.125-.613-.101-.77zm0 0" fill="#0f0f0f"/><path d="M18.957 10.207c-.805 0-1.457.652-1.457 1.461 0 .805.652 1.457 1.457 1.457.258 0 .633.14.977.484.34.344.484.72.484.973a1.458 1.458 0 102.914 0c0-1.203-.586-2.285-1.336-3.035-.754-.75-1.836-1.34-3.039-1.34m0 0" fill="#0f0f0f"/><path d="M10.965 34.754q.06.034.125.062c.793.34 1.77-.418 3.723-1.937l1.957-1.524c3.921.13 7.312-.386 9.933-1.304a10.2 10.2 0 006.266-6.262c1.414-4.043 1.414-11.453 0-15.496a10.22 10.22 0 00-6.266-6.262C22.035.398 12.88.43 8.297 2.031A10.22 10.22 0 002.03 8.293c-1.414 4.043-1.414 11.453 0 15.496a10.2 10.2 0 006.266 6.262c.574.203 1.219.422 1.91.574 0 2.477 0 3.715.758 4.129m2.16-4.258v-1.633a.724.724 0 00-.574-.71c-1.114-.239-2.215-.477-3.293-.852a7.3 7.3 0 01-4.473-4.477c-.558-1.59-.898-4.09-.898-6.781s.34-5.191.898-6.785a7.28 7.28 0 014.473-4.473c1.847-.648 4.914-1.047 8.21-1.05 3.302-.005 6.384.386 8.274 1.05a7.28 7.28 0 014.473 4.473c.558 1.594.898 4.094.898 6.785s-.34 5.191-.898 6.781a7.3 7.3 0 01-4.473 4.477c-3.11 1.086-6.406 1.207-9.664 1.113a.7.7 0 00-.473.152zm0 0" fill-rule="evenodd" fill="#0f0f0f"/></svg>